<?xml version="1.0" standalone="no"?>
<!DOCTYPE svg PUBLIC "-//W3C//DTD SVG 20010904//EN"
 "http://www.w3.org/TR/2001/REC-SVG-20010904/DTD/svg10.dtd">
<svg version="1.0" xmlns="http://www.w3.org/2000/svg"
 width="480.000000pt" height="640.000000pt" viewBox="0 0 480.000000 640.000000"
 preserveAspectRatio="xMidYMid meet">

<g transform="translate(0.000000,640.000000) scale(0.100000,-0.100000)"
fill="#000000" stroke="none">
<path d="M2726 4759 c-31 -44 -54 -85 -50 -90 3 -5 1 -8 -4 -7 -6 2 -48 -51
-93 -117 -46 -66 -105 -151 -131 -190 -27 -38 -65 -95 -86 -125 -20 -30 -63
-92 -95 -138 -31 -46 -54 -88 -51 -94 4 -6 3 -8 -3 -5 -6 4 -22 -10 -36 -31
-14 -20 -63 -91 -109 -158 -222 -321 -253 -367 -251 -370 1 -2 -8 -14 -20 -28
-12 -13 -44 -57 -72 -97 -27 -41 -90 -132 -138 -202 -49 -71 -87 -130 -85
-133 3 -2 52 0 109 6 57 5 203 16 324 25 121 9 267 20 324 25 58 6 131 10 163
10 57 0 59 -1 52 -22 -3 -13 -47 -149 -96 -303 -50 -154 -123 -383 -164 -510
-40 -126 -96 -299 -123 -384 -28 -85 -49 -156 -47 -158 2 -2 43 60 92 139 48
79 111 179 139 223 122 190 166 265 160 275 -4 6 -2 9 4 8 14 -4 102 134 96
150 -3 7 -1 11 4 8 9 -6 50 57 241 364 53 85 177 282 274 438 98 156 176 286
173 288 -2 3 -76 0 -163 -5 -88 -6 -251 -15 -364 -21 -113 -6 -235 -13 -272
-16 -38 -3 -68 -2 -68 3 0 8 163 506 351 1071 44 134 79 246 76 248 -2 2 -29
-32 -61 -77z"/>
</g>
</svg>
