<?xml version="1.0" standalone="no"?>
<!DOCTYPE svg PUBLIC "-//W3C//DTD SVG 20010904//EN"
 "http://www.w3.org/TR/2001/REC-SVG-20010904/DTD/svg10.dtd">
<svg version="1.0" xmlns="http://www.w3.org/2000/svg"
 width="400.000000pt" height="400.000000pt" viewBox="0 0 400.000000 400.000000"
 preserveAspectRatio="xMidYMid meet">

<g transform="translate(0.000000,400.000000) scale(0.100000,-0.100000)"
fill="#000000" stroke="none">
<path d="M1790 2980 c-368 -39 -681 -167 -852 -349 -251 -265 -146 -577 262
-784 206 -103 509 -167 800 -167 702 0 1264 339 1191 718 -18 90 -59 161 -146
248 -156 157 -404 266 -725 319 -114 19 -412 27 -530 15z m418 -50 c441 -47
786 -219 899 -446 32 -65 36 -84 36 -147 0 -169 -117 -319 -343 -436 -341
-177 -876 -223 -1305 -112 -300 78 -525 223 -607 390 -30 59 -33 74 -33 156 0
79 4 97 28 148 110 223 457 398 887 446 109 12 326 13 438 1z"/>
<path d="M1860 2849 c-272 -15 -543 -95 -710 -209 -125 -86 -192 -182 -198
-287 -10 -150 91 -279 301 -384 405 -204 1058 -208 1472 -10 333 160 419 390
223 597 -194 205 -616 319 -1088 293z m681 -233 c26 -12 28 -14 8 -10 -47 10
-151 -17 -339 -86 -278 -102 -389 -120 -490 -78 -35 15 -34 15 35 11 90 -6
161 12 313 81 188 86 268 107 373 101 36 -2 81 -10 100 -19z m140 -104 c51
-81 36 -157 -44 -222 l-30 -24 35 52 c53 76 57 120 20 193 -35 68 -24 68 19 1z
m-1147 -16 c66 -28 99 -103 54 -127 -19 -10 -25 -7 -58 29 -44 47 -84 59 -133
38 -60 -24 -88 -108 -67 -196 21 -89 95 -123 185 -86 31 13 35 19 35 50 l0 35
-52 3 c-49 3 -53 5 -53 28 0 23 4 25 60 30 33 3 70 3 83 1 31 -5 45 -43 39
-110 -5 -63 -24 -83 -106 -107 -107 -32 -210 5 -255 91 -25 48 -33 149 -16
200 15 46 65 104 105 121 40 17 137 18 179 0z m1044 -111 c2 -95 0 -111 -15
-122 -30 -22 -43 -15 -43 22 0 60 -57 96 -94 59 -36 -35 -32 -103 7 -129 27
-17 63 -9 132 32 36 21 33 18 -20 -31 -67 -61 -95 -71 -143 -50 -75 31 -84
186 -13 224 25 13 98 13 106 0 14 -23 25 -7 25 38 0 50 14 75 40 70 12 -3 16
-24 18 -113z m-874 -7 c9 -12 16 -17 16 -10 0 7 10 17 23 23 31 14 77 -4 77
-31 0 -17 -6 -20 -44 -20 -53 0 -56 -5 -63 -112 -5 -73 -7 -78 -28 -78 -13 0
-26 7 -29 16 -11 30 -7 209 6 222 17 17 25 15 42 -10z m318 2 c23 -17 26 -29
30 -102 3 -46 7 -89 9 -96 2 -8 -4 -19 -13 -25 -13 -9 -21 -7 -35 5 -16 14
-21 15 -43 3 -63 -36 -140 -6 -140 53 0 37 23 57 80 72 76 19 80 21 80 35 0
38 -81 41 -101 4 -15 -29 -49 -25 -49 6 0 57 128 88 182 45z m122 4 c5 -14 8
-14 28 0 33 23 87 20 115 -6 21 -20 23 -30 23 -119 0 -80 -3 -98 -16 -103 -32
-12 -44 13 -44 89 0 92 -5 105 -41 105 -43 0 -59 -32 -59 -118 0 -56 -4 -74
-15 -78 -35 -14 -45 14 -45 126 0 58 3 110 7 113 12 13 41 7 47 -9z m436 -194
c0 -25 -4 -30 -25 -30 -29 0 -32 16 -8 42 23 26 33 22 33 -12z m-120 -100 c0
-22 -4 -40 -10 -40 -5 0 -10 18 -10 40 0 22 5 40 10 40 6 0 10 -18 10 -40z
m-260 -16 c0 -19 -5 -24 -25 -24 -20 0 -25 5 -25 24 0 13 6 26 13 29 22 7 37
-4 37 -29z m148 3 c3 -23 0 -27 -22 -27 -32 0 -45 20 -17 27 12 3 21 10 21 15
0 6 -7 7 -16 4 -9 -3 -12 -2 -9 5 13 19 40 4 43 -24z m248 5 c4 -25 -21 -41
-38 -24 -8 8 -4 9 13 6 23 -5 23 -5 4 7 -28 17 -28 16 -20 29 11 18 38 7 41
-18z m-820 7 c4 -8 0 -9 -15 -4 -15 4 -21 2 -21 -8 0 -22 12 -28 28 -14 13 10
14 9 10 -3 -7 -21 -37 -25 -44 -6 -13 34 23 64 42 35z m152 -6 c2 -8 -5 -13
-17 -13 -12 0 -21 -5 -21 -11 0 -6 9 -8 23 -4 20 5 20 5 3 -6 -23 -14 -52 10
-42 36 7 19 47 17 54 -2z m125 10 c-7 -2 -13 -13 -13 -23 0 -10 -4 -22 -10
-25 -6 -4 -10 7 -10 24 0 26 4 31 23 30 12 0 16 -3 10 -6z"/>
<path d="M1930 2257 c-27 -9 -35 -17 -35 -37 0 -20 6 -26 27 -28 31 -4 68 28
68 58 0 23 -10 24 -60 7z"/>
<path d="M2168 2083 c7 -3 16 -2 19 1 4 3 -2 6 -13 5 -11 0 -14 -3 -6 -6z"/>
<path d="M2168 2063 c7 -3 16 -2 19 1 4 3 -2 6 -13 5 -11 0 -14 -3 -6 -6z"/>
<path d="M2266 1543 c-3 -3 -6 -49 -6 -100 l0 -94 63 3 c71 3 80 21 12 26
l-45 3 0 79 c0 73 -8 99 -24 83z"/>
<path d="M383 1525 c-25 -17 -39 -71 -29 -110 11 -42 41 -65 87 -65 61 0 79
14 79 60 0 40 0 40 -40 40 -29 0 -40 -4 -40 -15 0 -9 10 -15 26 -15 40 0 28
-34 -14 -38 -46 -5 -62 12 -62 63 0 62 41 88 85 53 32 -25 52 -12 29 20 -18
27 -87 31 -121 7z"/>
<path d="M560 1445 c0 -78 3 -95 15 -95 11 0 15 11 15 40 0 33 3 40 20 40 12
0 29 -15 45 -40 14 -22 32 -40 40 -40 21 0 19 12 -9 52 -22 34 -23 35 -5 47
22 13 26 60 7 79 -7 7 -38 12 -70 12 l-58 0 0 -95z m105 40 c0 -16 -8 -21 -37
-23 -35 -3 -38 -1 -38 23 0 24 3 26 38 23 29 -2 37 -7 37 -23z"/>
<path d="M761 1460 c-17 -45 -31 -88 -31 -96 0 -24 29 -15 36 11 5 21 12 25
45 25 33 0 40 -4 45 -25 6 -24 28 -34 37 -17 3 4 -10 45 -28 92 -24 64 -37 86
-52 88 -18 3 -26 -10 -52 -78z m66 -5 c11 -34 11 -35 -17 -35 -28 0 -28 1 -17
35 6 19 13 35 17 35 4 0 11 -16 17 -35z"/>
<path d="M924 1527 c-3 -8 -4 -49 -2 -93 2 -62 6 -79 18 -79 11 0 16 15 18 59
l3 60 39 -62 c57 -90 70 -84 70 33 0 76 -3 95 -15 95 -10 0 -15 -16 -17 -62
l-3 -62 -38 62 c-37 60 -62 77 -73 49z"/>
<path d="M1120 1445 l0 -95 50 0 c41 0 56 5 75 25 33 32 35 100 4 139 -18 22
-28 26 -75 26 l-54 0 0 -95z m98 53 c16 -16 16 -90 0 -106 -7 -7 -25 -12 -40
-12 -28 0 -28 0 -28 65 0 65 0 65 28 65 15 0 33 -5 40 -12z"/>
<path d="M1389 1521 c-20 -16 -24 -28 -24 -76 0 -48 4 -60 24 -76 44 -36 131
-13 131 35 0 26 -17 26 -34 1 -18 -27 -54 -33 -74 -13 -7 7 -12 30 -12 53 0
23 5 46 12 53 19 19 56 14 70 -8 16 -25 38 -26 38 -2 0 49 -86 70 -131 33z"/>
<path d="M1557 1533 c-9 -8 -9 -146 -1 -167 9 -23 134 -23 134 -1 0 11 -12 15
-50 15 -49 0 -50 1 -50 30 0 29 2 30 45 30 25 0 45 5 45 10 0 6 -20 10 -45 10
-41 0 -45 2 -45 25 0 23 3 25 50 25 38 0 50 4 50 15 0 12 -14 15 -63 15 -35 0
-67 -3 -70 -7z"/>
<path d="M1724 1527 c-3 -8 -4 -49 -2 -93 3 -66 6 -79 21 -82 14 -3 17 4 17
37 0 56 28 56 59 1 22 -40 51 -54 51 -24 0 9 -9 28 -19 43 -19 27 -19 27 0 39
23 15 25 55 3 76 -20 21 -122 22 -130 3z m104 -39 c-2 -18 -11 -24 -35 -26
-30 -3 -33 -1 -33 22 0 23 4 26 36 26 31 0 35 -3 32 -22z"/>
<path d="M1910 1445 l0 -96 68 3 c79 4 90 22 15 26 -51 3 -53 4 -53 33 0 28 2
29 45 29 25 0 45 5 45 10 0 6 -20 10 -45 10 -41 0 -45 2 -45 25 0 23 3 25 50
25 38 0 50 4 50 15 0 12 -14 15 -65 15 l-65 0 0 -95z"/>
<path d="M2126 1531 c-8 -13 -66 -165 -66 -173 0 -19 31 -6 40 17 8 20 16 25
45 25 29 0 37 -5 45 -25 9 -23 40 -36 40 -16 0 5 -14 48 -31 95 -24 65 -36 86
-50 86 -10 0 -20 -4 -23 -9z m44 -98 c0 -7 -12 -13 -26 -13 -20 0 -25 4 -20
16 3 9 9 28 13 42 l6 27 13 -30 c7 -16 13 -36 14 -42z"/>
<path d="M2421 1526 c-7 -8 -11 -27 -9 -43 2 -23 11 -31 48 -44 50 -18 62 -42
31 -59 -18 -9 -25 -7 -46 16 -25 27 -48 25 -38 -4 16 -46 100 -60 127 -20 31
44 13 75 -56 98 -42 13 -50 35 -16 46 16 5 27 1 39 -15 9 -11 22 -21 28 -21
15 0 14 33 -1 48 -17 17 -93 15 -107 -2z"/>
<path d="M2644 1527 c-3 -8 -4 -49 -2 -93 l3 -79 63 -3 c51 -2 62 0 62 13 0
11 -11 15 -45 15 l-45 0 0 80 c0 65 -3 80 -15 80 -9 0 -18 -6 -21 -13z"/>
<path d="M2800 1445 c0 -78 3 -95 15 -95 12 0 15 17 15 95 0 78 -3 95 -15 95
-12 0 -15 -17 -15 -95z"/>
<path d="M2874 1527 c-3 -8 -4 -49 -2 -93 3 -66 6 -79 21 -82 15 -3 17 5 18
60 l1 63 16 -60 c11 -39 23 -61 34 -63 17 -3 17 -2 46 113 9 37 10 35 11 -37
1 -62 4 -78 16 -78 12 0 15 17 15 95 l0 95 -29 0 c-27 0 -29 -4 -41 -62 -15
-66 -19 -64 -40 20 -9 35 -15 42 -36 42 -13 0 -27 -6 -30 -13z"/>
<path d="M3090 1445 c0 -86 2 -96 18 -93 15 3 17 15 17 93 0 78 -2 90 -17 93
-16 3 -18 -7 -18 -93z"/>
<path d="M3150 1525 c0 -10 10 -15 30 -15 l30 0 0 -80 c0 -64 3 -80 15 -80 12
0 15 16 15 80 l0 80 30 0 c20 0 30 5 30 15 0 12 -15 15 -75 15 -60 0 -75 -3
-75 -15z"/>
<path d="M3330 1445 l0 -95 65 0 c51 0 65 3 65 15 0 11 -12 15 -50 15 -49 0
-50 1 -50 30 0 29 2 30 45 30 25 0 45 5 45 10 0 6 -20 10 -45 10 -41 0 -45 2
-45 25 0 23 3 25 50 25 38 0 50 4 50 15 0 12 -14 15 -65 15 l-65 0 0 -95z"/>
<path d="M3496 1524 c-3 -9 -6 -44 -6 -79 0 -90 3 -95 60 -95 71 0 95 23 95
93 0 75 -20 97 -90 97 -39 0 -54 -4 -59 -16z m102 -26 c16 -16 16 -90 0 -106
-7 -7 -25 -12 -40 -12 -28 0 -28 0 -28 65 0 65 0 65 28 65 15 0 33 -5 40 -12z"/>
</g>
</svg>
