<?xml version="1.0" standalone="no"?>
<!DOCTYPE svg PUBLIC "-//W3C//DTD SVG 20010904//EN"
 "http://www.w3.org/TR/2001/REC-SVG-20010904/DTD/svg10.dtd">
<svg version="1.0" xmlns="http://www.w3.org/2000/svg"
 width="342.000000pt" height="291.000000pt" viewBox="0 0 342.000000 291.000000"
 preserveAspectRatio="xMidYMid meet">

<g transform="translate(0.000000,291.000000) scale(0.100000,-0.100000)"
fill="#000000" stroke="none">
<path d="M1535 2594 c-174 -38 -350 -133 -487 -263 -56 -53 -88 -90 -85 -100
3 -13 371 -545 396 -573 4 -4 47 32 96 81 81 79 181 151 211 151 6 0 29 -38
50 -85 22 -47 42 -85 46 -85 13 0 103 109 140 171 21 34 38 72 37 83 0 12 -30
158 -67 326 l-67 305 -100 2 c-59 1 -129 -5 -170 -13z"/>
<path d="M1093 1484 c-150 -55 -193 -284 -77 -401 47 -46 92 -63 172 -63 133
0 225 94 226 230 1 110 -37 181 -117 222 -54 27 -148 33 -204 12z m157 -56
c59 -31 90 -89 90 -171 0 -113 -60 -187 -149 -187 -100 0 -163 74 -163 190 0
88 33 147 97 176 43 19 75 17 125 -8z"/>
<path d="M432 1258 l3 -233 35 0 35 0 3 209 2 209 47 -6 c59 -6 83 -33 83 -92
0 -57 -23 -85 -78 -92 -45 -6 -51 -13 -26 -34 21 -17 90 -14 120 6 67 44 86
148 37 206 -39 45 -79 59 -178 59 l-85 0 2 -232z"/>
<path d="M792 1258 l3 -233 35 0 35 0 -4 225 c-2 124 -5 228 -8 233 -2 4 -17
7 -34 7 l-29 0 2 -232z"/>
<path d="M1498 1258 c2 -128 5 -234 7 -237 2 -2 15 -1 29 3 l26 6 2 171 3 170
64 -93 c36 -51 92 -130 125 -176 55 -74 64 -82 91 -80 l30 3 3 233 2 233 -27
-3 c-27 -3 -28 -6 -36 -78 -4 -41 -7 -119 -5 -172 2 -53 0 -94 -5 -89 -4 4
-60 81 -126 172 -109 152 -120 164 -152 167 l-34 3 3 -233z"/>
<path d="M2013 1483 l-33 -4 0 -220 c0 -198 2 -220 17 -226 10 -4 64 -7 121
-7 91 -1 105 1 117 18 8 10 12 23 9 27 -3 5 -48 9 -100 9 l-95 0 3 78 3 77 70
3 c70 3 95 13 95 38 0 11 -19 14 -85 14 l-85 0 0 69 0 68 78 7 c56 4 80 11 90
23 10 15 10 19 -5 25 -19 7 -145 8 -200 1z"/>
<path d="M2344 1483 c-31 -6 -38 -76 -29 -284 l7 -167 65 -7 c87 -9 180 2 188
23 9 24 -14 32 -103 32 l-83 0 3 78 3 77 70 3 c67 3 95 16 95 44 0 4 -38 8
-85 8 l-85 0 0 69 0 68 78 7 c56 4 80 11 90 23 10 15 10 19 -5 25 -19 7 -173
8 -209 1z"/>
<path d="M2657 1483 c-4 -3 -7 -110 -7 -236 l0 -229 23 6 c12 3 28 6 35 6 9 0
12 25 12 90 0 72 3 92 15 96 25 10 61 -22 108 -93 48 -76 61 -88 97 -96 40
-10 54 5 32 34 -11 13 -42 58 -70 99 l-51 75 37 38 c33 34 37 43 37 91 0 61
-19 90 -72 112 -33 14 -184 20 -196 7z m172 -67 c15 -16 23 -37 23 -61 0 -53
-33 -85 -89 -85 l-43 0 0 85 0 85 43 0 c33 0 49 -6 66 -24z"/>
<path d="M994 863 l-41 -4 -7 -61 c-8 -78 -8 -153 0 -212 6 -39 10 -46 29 -46
28 0 35 17 35 79 l0 48 52 6 c88 11 84 47 -4 47 l-48 0 0 50 0 50 55 0 c43 0
56 4 64 19 9 16 6 19 -21 25 -17 3 -40 5 -52 4 -11 -1 -40 -3 -62 -5z"/>
<path d="M1270 859 c-60 -24 -91 -78 -91 -154 0 -96 39 -148 124 -163 64 -12
118 3 158 44 33 34 34 37 34 119 0 75 -2 86 -25 110 -46 50 -135 70 -200 44z
m130 -57 c75 -76 37 -222 -58 -222 -60 0 -85 33 -90 120 -4 66 -3 71 26 100
40 40 83 40 122 2z"/>
<path d="M1640 859 c-59 -24 -91 -78 -92 -154 -1 -106 57 -165 162 -165 113 0
163 56 158 177 -3 60 -7 76 -28 99 -46 49 -135 69 -200 43z m130 -57 c50 -50
52 -151 5 -198 -32 -32 -84 -32 -122 0 -24 21 -28 32 -31 93 -4 63 -2 72 23
101 36 43 84 44 125 4z"/>
<path d="M1978 863 c-36 -4 -37 -5 -43 -56 -3 -29 -5 -99 -3 -157 l3 -105 78
-3 c63 -2 87 1 121 18 109 53 118 234 13 283 -36 17 -114 26 -169 20z m143
-72 c25 -26 29 -37 29 -86 0 -51 -3 -60 -34 -91 -28 -28 -42 -34 -75 -34 l-41
0 0 120 0 120 46 0 c37 0 51 -5 75 -29z"/>
<path d="M2303 846 c-22 -19 -28 -33 -28 -64 0 -47 18 -70 80 -107 53 -30 61
-49 34 -76 -21 -21 -33 -21 -95 -3 -14 4 -23 0 -27 -10 -10 -24 37 -49 90 -48
55 0 94 26 107 70 13 45 -7 84 -59 116 -24 16 -52 37 -62 48 -17 19 -17 21 5
38 16 13 32 17 60 13 30 -4 40 -1 45 11 16 41 -104 51 -150 12z"/>
</g>
</svg>
