<?xml version="1.0" standalone="no"?>
<!DOCTYPE svg PUBLIC "-//W3C//DTD SVG 20010904//EN"
 "http://www.w3.org/TR/2001/REC-SVG-20010904/DTD/svg10.dtd">
<svg version="1.0" xmlns="http://www.w3.org/2000/svg"
 width="400.000000pt" height="231.000000pt" viewBox="0 0 400.000000 231.000000"
 preserveAspectRatio="xMidYMid meet">

<g transform="translate(0.000000,231.000000) scale(0.100000,-0.100000)"
fill="#000000" stroke="none">
<path d="M3170 1770 c0 -5 -7 -10 -15 -10 -8 0 -25 -10 -37 -22 -32 -32 -65
-48 -100 -48 -23 0 -31 -6 -40 -30 -7 -22 -19 -33 -39 -37 -15 -3 -45 -19 -66
-37 -58 -47 -96 -72 -123 -81 -14 -4 -31 -16 -38 -26 -18 -26 -52 -25 -45 1 3
11 9 20 14 20 5 0 9 11 9 24 0 35 19 45 68 36 23 -4 44 -5 46 -1 2 3 7 34 11
67 l7 62 -64 11 c-295 51 -522 -51 -599 -269 -19 -53 -23 -86 -24 -180 0 -107
-1 -115 -22 -125 -12 -6 -36 -26 -54 -43 -19 -18 -44 -35 -56 -38 -13 -4 -23
-10 -23 -16 0 -16 -38 -50 -49 -43 -8 4 -11 117 -11 356 l0 349 -85 0 -85 0 0
-159 c0 -94 -4 -162 -10 -166 -5 -3 -92 -6 -192 -6 l-183 0 -3 166 -2 165 -90
0 -90 0 0 -415 0 -415 90 0 90 0 0 180 0 180 193 -2 192 -3 3 -175 c1 -96 7
-179 12 -184 16 -16 12 -23 -20 -36 -17 -7 -34 -18 -38 -24 -4 -7 -22 -22 -39
-35 -32 -21 -44 -51 -23 -51 6 0 21 9 33 21 12 11 50 34 85 50 34 17 62 34 62
39 0 10 57 40 78 40 8 0 23 11 34 25 11 14 26 25 34 25 8 0 37 16 64 35 77 54
96 45 65 -28 -8 -20 -15 -41 -15 -47 0 -18 27 -10 65 20 21 16 43 30 50 30 7
0 15 9 18 20 7 29 28 25 88 -16 61 -41 81 -50 157 -70 64 -17 211 -18 300 -3
l64 11 -7 62 c-4 33 -10 64 -14 68 -3 4 -37 0 -76 -8 -128 -28 -271 0 -330 66
-17 19 -17 21 0 40 10 11 21 20 25 20 4 0 29 21 56 46 27 26 65 59 84 73 19
14 95 75 168 134 73 60 143 114 155 120 12 7 38 28 57 47 l35 35 5 -350 5
-350 83 -3 82 -3 0 331 c0 188 4 329 9 326 5 -3 16 -29 26 -58 9 -29 73 -165
143 -303 69 -137 130 -260 136 -272 11 -22 17 -23 134 -23 l122 0 0 415 0 415
-80 0 -80 0 0 -332 c0 -370 0 -371 -59 -223 -17 44 -85 186 -150 315 l-119
235 -38 5 c-49 7 -52 21 -9 44 27 15 32 22 24 33 -13 15 -39 18 -39 3z m-516
-198 c3 -5 -14 -21 -37 -35 -23 -15 -69 -52 -101 -83 -33 -30 -73 -63 -90 -71
-17 -9 -39 -26 -49 -39 -10 -13 -28 -29 -39 -35 -20 -11 -21 -9 -14 32 17 108
81 186 181 221 52 18 140 24 149 10z m157 -99 c-30 -27 -69 -59 -86 -73 -48
-37 -272 -219 -427 -347 -76 -62 -140 -113 -143 -113 -7 0 -6 46 2 54 10 10
32 76 24 76 -3 0 -42 -23 -86 -50 -73 -46 -105 -59 -105 -44 0 8 42 43 285
240 301 243 320 258 323 267 4 8 32 10 32 1 0 -3 -14 -33 -31 -65 -18 -33 -30
-61 -28 -64 3 -2 54 28 114 67 95 61 158 96 175 98 2 0 -20 -21 -49 -47z"/>
<path d="M443 1703 l-33 -4 0 -420 0 -420 88 3 87 3 3 157 3 158 77 -1 c184
-3 310 104 320 271 6 107 -42 187 -140 231 -48 21 -68 24 -213 25 -88 1 -175
0 -192 -3z m305 -143 c34 -21 62 -72 62 -112 0 -13 -9 -42 -19 -65 -25 -55
-64 -75 -139 -71 l-57 3 -3 119 c-1 66 0 126 2 133 9 22 115 17 154 -7z"/>
</g>
</svg>
